# xmcd
#
# Track frame offsets:
#	150
#	64515
#	124980
#	203097
#	265737
#	275930
#	297520
#
# Disc length: 4083 seconds
#
# Revision: 0
# Processed by: cddbd v1.4PL0 Copyright (c) Steve Scherf et al.
# Submitted via: dBpowerAMP V4.0
#
DISCID=730ff107
DTITLE=The Beatles - The long and winding Road  CD 6/12
DYEAR=1900
DGENRE=Blues
TTITLE0=Spur 1
TTITLE1=Spur 2
TTITLE2=Spur 3
TTITLE3=Spur 4
TTITLE4=Spur 5
TTITLE5=Spur 6
TTITLE6=Spur 7
EXTD=Special Edition
EXTT0=
EXTT1=
EXTT2=
EXTT3=
EXTT4=
EXTT5=
EXTT6=
PLAYORDER=
